<?xml version="1.0" encoding="UTF-8" standalone="no"?>
<!DOCTYPE svg PUBLIC "-//W3C//DTD SVG 1.1//EN"
 "http://www.w3.org/Graphics/SVG/1.1/DTD/svg11.dtd">
<!-- Generated by graphviz version 2.40.1 (20161225.0304)
 -->
<!-- Title: dependencies Pages: 1 -->
<svg width="1098pt" height="290pt"
 viewBox="0.00 0.00 1098.00 290.00" xmlns="http://www.w3.org/2000/svg" xmlns:xlink="http://www.w3.org/1999/xlink">
<g id="graph0" class="graph" transform="scale(1 1) rotate(0) translate(4 286)">
<title>dependencies</title>
<polygon fill="#ffffff" stroke="transparent" points="-4,4 -4,-286 1094,-286 1094,4 -4,4"/>
<text text-anchor="start" x="524.0091" y="-42.4" font-family="sans-serif" font-weight="bold" font-size="14.00" fill="#000000">Legend</text>
<polygon fill="#ffffb3" stroke="transparent" points="311,-10 311,-30 331,-30 331,-10 311,-10"/>
<text text-anchor="start" x="334.629" y="-15.4" font-family="sans-serif" font-size="14.00" fill="#000000"> &#160;Declarations</text>
<polygon fill="#8dd3c7" stroke="transparent" points="424,-10 424,-30 444,-30 444,-10 424,-10"/>
<text text-anchor="start" x="447.7251" y="-15.4" font-family="sans-serif" font-size="14.00" fill="#000000"> &#160;Module</text>
<polygon fill="#80b1d3" stroke="transparent" points="510,-10 510,-30 530,-30 530,-10 510,-10"/>
<text text-anchor="start" x="533.7812" y="-15.4" font-family="sans-serif" font-size="14.00" fill="#000000"> &#160;Bootstrap</text>
<polygon fill="#fdb462" stroke="transparent" points="607,-10 607,-30 627,-30 627,-10 607,-10"/>
<text text-anchor="start" x="630.6732" y="-15.4" font-family="sans-serif" font-size="14.00" fill="#000000"> &#160;Providers</text>
<polygon fill="#fb8072" stroke="transparent" points="703,-10 703,-30 723,-30 723,-10 703,-10"/>
<text text-anchor="start" x="726.7258" y="-15.4" font-family="sans-serif" font-size="14.00" fill="#000000"> &#160;Exports</text>
<g id="clust1" class="cluster">
<title>cluster_AppModule</title>
<polygon fill="none" stroke="#000000" stroke-dasharray="1,5" points="8,-70 8,-274 270,-274 270,-70 8,-70"/>
</g>
<g id="clust2" class="cluster">
<title>cluster_AppModule_declarations</title>
<polygon fill="none" stroke="#000000" points="16,-78 16,-130 138,-130 138,-78 16,-78"/>
</g>
<g id="clust4" class="cluster">
<title>cluster_AppModule_imports</title>
<polygon fill="none" stroke="#000000" points="146,-78 146,-130 262,-130 262,-78 146,-78"/>
</g>
<g id="clust6" class="cluster">
<title>cluster_AppModule_bootstrap</title>
<polygon fill="none" stroke="#000000" points="77,-214 77,-266 201,-266 201,-214 77,-214"/>
</g>
<g id="clust8" class="cluster">
<title>cluster_LayoutModule</title>
<polygon fill="none" stroke="#000000" stroke-dasharray="1,5" points="278,-138 278,-206 910,-206 910,-138 278,-138"/>
</g>
<g id="clust9" class="cluster">
<title>cluster_LayoutModule_declarations</title>
<polygon fill="none" stroke="#000000" points="601,-146 601,-198 902,-198 902,-146 601,-146"/>
</g>
<g id="clust13" class="cluster">
<title>cluster_LayoutModule_exports</title>
<polygon fill="none" stroke="#000000" points="286,-146 286,-198 593,-198 593,-146 286,-146"/>
</g>
<g id="clust16" class="cluster">
<title>cluster_PostsModule</title>
<polygon fill="none" stroke="#000000" stroke-dasharray="1,5" points="918,-70 918,-198 1082,-198 1082,-70 918,-70"/>
</g>
<g id="clust17" class="cluster">
<title>cluster_PostsModule_declarations</title>
<polygon fill="none" stroke="#000000" points="926,-78 926,-130 1074,-130 1074,-78 926,-78"/>
</g>
<!-- AppComponent -->
<g id="node1" class="node">
<title>AppComponent</title>
<polygon fill="#ffffb3" stroke="#000000" points="129.9399,-122 24.0601,-122 24.0601,-86 129.9399,-86 129.9399,-122"/>
<text text-anchor="middle" x="77" y="-99.8" font-family="Times,serif" font-size="14.00" fill="#000000">AppComponent</text>
</g>
<!-- AppModule -->
<g id="node2" class="node">
<title>AppModule</title>
<polygon fill="#8dd3c7" stroke="#000000" points="180.6571,-190 177.6571,-194 156.6571,-194 153.6571,-190 97.3429,-190 97.3429,-154 180.6571,-154 180.6571,-190"/>
<text text-anchor="middle" x="139" y="-167.8" font-family="Times,serif" font-size="14.00" fill="#000000">AppModule</text>
</g>
<!-- AppComponent&#45;&gt;AppModule -->
<g id="edge1" class="edge">
<title>AppComponent&#45;&gt;AppModule</title>
<path fill="none" stroke="#000000" d="M113.4457,-122.2228C113.4457,-122.2228 113.4457,-143.7269 113.4457,-143.7269"/>
<polygon fill="#000000" stroke="#000000" points="109.9457,-143.7269 113.4457,-153.7269 116.9457,-143.727 109.9457,-143.7269"/>
</g>
<!-- AppComponent  -->
<g id="node4" class="node">
<title>AppComponent </title>
<polygon fill="#80b1d3" stroke="#000000" points="193.439,-258 84.561,-258 84.561,-222 193.439,-222 193.439,-258"/>
<text text-anchor="middle" x="139" y="-235.8" font-family="Times,serif" font-size="14.00" fill="#000000">AppComponent </text>
</g>
<!-- AppModule&#45;&gt;AppComponent  -->
<g id="edge3" class="edge">
<title>AppModule&#45;&gt;AppComponent </title>
<path fill="none" stroke="#000000" stroke-dasharray="1,5" d="M139,-190.2228C139,-190.2228 139,-211.7269 139,-211.7269"/>
<polygon fill="#000000" stroke="#000000" points="135.5001,-211.7269 139,-221.7269 142.5001,-211.727 135.5001,-211.7269"/>
</g>
<!-- LayoutModule -->
<g id="node3" class="node">
<title>LayoutModule</title>
<polygon fill="#8dd3c7" stroke="#000000" points="253.7078,-122 250.7078,-126 229.7078,-126 226.7078,-122 154.2922,-122 154.2922,-86 253.7078,-86 253.7078,-122"/>
<text text-anchor="middle" x="204" y="-99.8" font-family="Times,serif" font-size="14.00" fill="#000000">LayoutModule</text>
</g>
<!-- LayoutModule&#45;&gt;AppModule -->
<g id="edge2" class="edge">
<title>LayoutModule&#45;&gt;AppModule</title>
<path fill="none" stroke="#000000" d="M167.6122,-122.2228C167.6122,-122.2228 167.6122,-143.7269 167.6122,-143.7269"/>
<polygon fill="#000000" stroke="#000000" points="164.1123,-143.7269 167.6122,-153.7269 171.1123,-143.727 164.1123,-143.7269"/>
</g>
<!-- AppLayoutComponent  -->
<g id="node7" class="node">
<title>AppLayoutComponent </title>
<polygon fill="#fb8072" stroke="#000000" points="585.0973,-190 436.9027,-190 436.9027,-154 585.0973,-154 585.0973,-190"/>
<text text-anchor="middle" x="511" y="-167.8" font-family="Times,serif" font-size="14.00" fill="#000000">AppLayoutComponent </text>
</g>
<!-- LayoutModule&#45;&gt;AppLayoutComponent  -->
<g id="edge6" class="edge">
<title>LayoutModule&#45;&gt;AppLayoutComponent </title>
<path fill="none" stroke="#000000" stroke-dasharray="5,2" d="M253.6661,-113C340.5537,-113 511,-113 511,-113 511,-113 511,-143.9775 511,-143.9775"/>
<polygon fill="#000000" stroke="#000000" points="507.5001,-143.9774 511,-153.9775 514.5001,-143.9775 507.5001,-143.9774"/>
</g>
<!-- SimpleComponent  -->
<g id="node8" class="node">
<title>SimpleComponent </title>
<polygon fill="#fb8072" stroke="#000000" points="418.0024,-190 293.9976,-190 293.9976,-154 418.0024,-154 418.0024,-190"/>
<text text-anchor="middle" x="356" y="-167.8" font-family="Times,serif" font-size="14.00" fill="#000000">SimpleComponent </text>
</g>
<!-- LayoutModule&#45;&gt;SimpleComponent  -->
<g id="edge7" class="edge">
<title>LayoutModule&#45;&gt;SimpleComponent </title>
<path fill="none" stroke="#000000" stroke-dasharray="5,2" d="M223.5367,-122.2228C223.5367,-142.3652 223.5367,-172 223.5367,-172 223.5367,-172 283.6471,-172 283.6471,-172"/>
<polygon fill="#000000" stroke="#000000" points="283.6471,-175.5001 293.6471,-172 283.6471,-168.5001 283.6471,-175.5001"/>
</g>
<!-- AppLayoutComponent -->
<g id="node5" class="node">
<title>AppLayoutComponent</title>
<polygon fill="#ffffb3" stroke="#000000" points="893.5968,-190 748.4032,-190 748.4032,-154 893.5968,-154 893.5968,-190"/>
<text text-anchor="middle" x="821" y="-167.8" font-family="Times,serif" font-size="14.00" fill="#000000">AppLayoutComponent</text>
</g>
<!-- AppLayoutComponent&#45;&gt;LayoutModule -->
<g id="edge4" class="edge">
<title>AppLayoutComponent&#45;&gt;LayoutModule</title>
<path fill="none" stroke="#000000" d="M821,-153.7521C821,-130.9821 821,-95 821,-95 821,-95 263.7086,-95 263.7086,-95"/>
<polygon fill="#000000" stroke="#000000" points="263.7086,-91.5001 253.7086,-95 263.7086,-98.5001 263.7086,-91.5001"/>
</g>
<!-- SimpleComponent -->
<g id="node6" class="node">
<title>SimpleComponent</title>
<polygon fill="#ffffb3" stroke="#000000" points="730.5014,-190 609.4986,-190 609.4986,-154 730.5014,-154 730.5014,-190"/>
<text text-anchor="middle" x="670" y="-167.8" font-family="Times,serif" font-size="14.00" fill="#000000">SimpleComponent</text>
</g>
<!-- SimpleComponent&#45;&gt;LayoutModule -->
<g id="edge5" class="edge">
<title>SimpleComponent&#45;&gt;LayoutModule</title>
<path fill="none" stroke="#000000" d="M670,-153.7772C670,-133.6348 670,-104 670,-104 670,-104 263.8702,-104 263.8702,-104"/>
<polygon fill="#000000" stroke="#000000" points="263.8702,-100.5001 253.8702,-104 263.8701,-107.5001 263.8702,-100.5001"/>
</g>
<!-- PostsListComponent -->
<g id="node9" class="node">
<title>PostsListComponent</title>
<polygon fill="#ffffb3" stroke="#000000" points="1066.1736,-122 933.8264,-122 933.8264,-86 1066.1736,-86 1066.1736,-122"/>
<text text-anchor="middle" x="1000" y="-99.8" font-family="Times,serif" font-size="14.00" fill="#000000">PostsListComponent</text>
</g>
<!-- PostsModule -->
<g id="node10" class="node">
<title>PostsModule</title>
<polygon fill="#8dd3c7" stroke="#000000" points="1044.6123,-190 1041.6123,-194 1020.6123,-194 1017.6123,-190 955.3877,-190 955.3877,-154 1044.6123,-154 1044.6123,-190"/>
<text text-anchor="middle" x="1000" y="-167.8" font-family="Times,serif" font-size="14.00" fill="#000000">PostsModule</text>
</g>
<!-- PostsListComponent&#45;&gt;PostsModule -->
<g id="edge8" class="edge">
<title>PostsListComponent&#45;&gt;PostsModule</title>
<path fill="none" stroke="#000000" d="M1000,-122.2228C1000,-122.2228 1000,-143.7269 1000,-143.7269"/>
<polygon fill="#000000" stroke="#000000" points="996.5001,-143.7269 1000,-153.7269 1003.5001,-143.727 996.5001,-143.7269"/>
</g>
</g>
</svg>
